<?xml version="1.0" encoding="UTF-8"?>
<svg version="1.1" xmlns="http://www.w3.org/2000/svg" width="500" height="500">
<path d="M0 0 C4.69588654 4.50107902 7.11667965 8.18558936 7.375 14.8125 C7.09031586 34.48158619 -7.21369634 50.36976826 -20.4296875 63.39453125 C-24.0156709 66.75124686 -27.62889568 69.80445137 -31.73828125 72.49609375 C-32.38112061 72.92390137 -33.02395996 73.35170898 -33.6862793 73.79248047 C-34.95098798 74.62096738 -36.2322325 75.42489449 -37.53051758 76.19970703 C-39.56819005 77.44840562 -39.56819005 77.44840562 -42 80 C-42.54055196 82.86975413 -42.31838552 85.05025176 -42 88 C-44.475 88.99 -44.475 88.99 -47 90 C-46.01 97.59 -45.02 105.18 -44 113 C-41.36 113.33 -38.72 113.66 -36 114 C-33.30829897 118.03755154 -33.22822436 121.34202669 -34 126 C-36.60013627 133.05090334 -40.18224066 138.86494792 -45.58203125 144.0859375 C-50.02519505 150.08359663 -48.67509322 161.7335421 -48 169 C-46.57464203 174.96730176 -44.03749989 179.38571441 -40 184 C-40 184.66 -40 185.32 -40 186 C-39.4225 186.268125 -38.845 186.53625 -38.25 186.8125 C-35.92636635 188.0388622 -33.96175354 189.24843434 -32 191 C-32 191.99 -32 192.98 -32 194 C-38.08453739 192.90478327 -42.27593266 188.39705854 -45.78125 183.5234375 C-50.36072563 176.09301381 -52.32988914 169.99823776 -52.1875 161.3125 C-52.1865332 160.17458008 -52.1865332 160.17458008 -52.18554688 159.01367188 C-52.15970931 155.76100988 -52.03491238 153.10473714 -51 150 C-51.49628906 150.43570313 -51.99257813 150.87140625 -52.50390625 151.3203125 C-56.97819019 155.24273979 -61.47564042 159.13544286 -66 163 C-62.70888695 175.57579782 -57.23452239 185.20897589 -48.375 194.75 C-46.12936936 197.19977888 -45.04485017 198.75581572 -44.4375 202.0625 C-45.2320367 206.21174723 -47.23397372 208.70487929 -50.65356445 211.21264648 C-52.55466743 212.4240423 -54.48231653 213.56561076 -56.4375 214.6875 C-57.09298828 215.07744141 -57.74847656 215.46738281 -58.42382812 215.86914062 C-61.86359582 217.88745969 -65.23435786 219.64320794 -69 221 C-68.690625 221.886875 -68.38125 222.77375 -68.0625 223.6875 C-65.63714707 231.24889443 -65.63714707 231.24889443 -67.171875 234.42578125 C-72.22067888 241.53510124 -81.61016602 245.48449531 -90 247 C-94.329598 247.48587711 -98.64820243 247.80219102 -103 248 C-103.07347656 249.66289062 -103.07347656 249.66289062 -103.1484375 251.359375 C-103.22349215 252.82294065 -103.29903881 254.28648112 -103.375 255.75 C-103.4059375 256.47960937 -103.436875 257.20921875 -103.46875 257.9609375 C-103.84381131 264.83706144 -103.84381131 264.83706144 -106 268 C-112.62040174 272.83798589 -123.88146467 271.18619553 -131.67114258 271.18530273 C-133.79724306 271.18748434 -135.92281932 271.20567764 -138.04882812 271.22460938 C-158.00575838 271.3110635 -158.00575838 271.3110635 -162.78051758 267.62573242 C-164.62378011 265.16841807 -164.19810766 262.97161492 -164 260 C-164.5983667 259.96036133 -165.1967334 259.92072266 -165.81323242 259.87988281 C-196.00344616 257.78080332 -196.00344616 257.78080332 -205 250 C-206.375 248.25 -206.375 248.25 -207 246 C-206.814375 244.7625 -206.62875 243.525 -206.4375 242.25 C-206.26541716 240.10674186 -206.26541716 240.10674186 -207 238 C-209.47190067 235.65532951 -212.10671093 233.88887313 -214.953125 232.01953125 C-217.89304095 230.07089465 -220.52974483 228.00245554 -223.1875 225.6875 C-223.92355469 225.05199219 -224.65960938 224.41648437 -225.41796875 223.76171875 C-227 222 -227 222 -227 219 C-226.1646875 218.61521484 -226.1646875 218.61521484 -225.3125 218.22265625 C-208.40130359 209.73849184 -202.75130571 191.91091045 -197.125 175.0625 C-193.95452026 165.45509677 -191.0210737 155.78145537 -188.14355469 146.08300781 C-171.78759333 90.98180083 -171.78759333 90.98180083 -148 76 C-137.27860178 70.74346993 -127.62868682 69.81864021 -116.1015625 72.8828125 C-101.3631843 78.1915986 -91.18954853 90.10555485 -84.375 103.75 C-78.94999879 115.51681498 -74.71312134 129.15158997 -73 142 C-68.35384415 139.73794864 -66.22923525 136.70670585 -63.6875 132.375 C-54.27121754 117.07130942 -54.27121754 117.07130942 -48.76953125 115.26953125 C-48.18558594 115.18058594 -47.60164062 115.09164062 -47 115 C-47.33 114.34 -47.66 113.68 -48 113 C-48.28794852 111.33665893 -48.5326933 109.66571153 -48.75390625 107.9921875 C-48.88603516 107.00605469 -49.01816406 106.01992187 -49.15429688 105.00390625 C-49.35635742 103.45509766 -49.35635742 103.45509766 -49.5625 101.875 C-49.70107422 100.83472656 -49.83964844 99.79445313 -49.98242188 98.72265625 C-50.32480981 96.1488435 -50.6638618 93.57463517 -51 91 C-52.65 90.67 -54.3 90.34 -56 90 C-56.125 84.25 -56.125 84.25 -55 82 C-55.85980469 81.76410156 -56.71960938 81.52820313 -57.60546875 81.28515625 C-61.35532324 79.86547601 -64.2097705 77.90742983 -67.3125 75.4375 C-67.87791504 74.99204834 -68.44333008 74.54659668 -69.02587891 74.08764648 C-82.55049081 63.26373412 -93.8906645 49.03461571 -96.78125 31.46875 C-97.46192745 23.78681876 -96.20174075 16.54548632 -92 10 C-86.7524727 3.88579964 -80.86045845 0.90160899 -72.96875 -0.3125 C-66.07812239 -0.75000017 -59.96483166 2.26079999 -54.625 6.4375 C-52.15104068 8.85255553 -50.69825623 11.02556877 -49 14 C-48.05640625 12.89591797 -48.05640625 12.89591797 -47.09375 11.76953125 C-35.49131282 -1.45794608 -16.73816837 -12.24298341 0 0 Z M-55.140625 125.4765625 C-58.0865623 129.47462027 -60.54802133 133.73968881 -63.0078125 138.046875 C-65.44800375 141.66409968 -68.09788883 144.04894441 -72 146 C-71.68991116 147.60463449 -71.37683713 149.20869231 -71.0625 150.8125 C-70.88847656 151.70582031 -70.71445312 152.59914062 -70.53515625 153.51953125 C-70.02258847 156.11397171 -70.02258847 156.11397171 -69 159 C-65.49172085 157.47920927 -63.04728354 155.4004327 -60.25 152.8125 C-57.16631402 149.9688072 -54.05739309 147.21913762 -50.8125 144.5625 C-44.14779855 138.74775036 -37.68881149 130.19930343 -36.6875 121.1875 C-36.80625 118.79375 -36.80625 118.79375 -39 117 C-46.23802898 115.9947182 -50.79799207 120.30767641 -55.140625 125.4765625 Z " fill="#FEFCFD" transform="translate(386,79)"/>
<path d="M0 0 C4.69588654 4.50107902 7.11667965 8.18558936 7.375 14.8125 C7.09031586 34.48158619 -7.21369634 50.36976826 -20.4296875 63.39453125 C-24.0156709 66.75124686 -27.62889568 69.80445137 -31.73828125 72.49609375 C-32.38112061 72.92390137 -33.02395996 73.35170898 -33.6862793 73.79248047 C-34.95098798 74.62096738 -36.2322325 75.42489449 -37.53051758 76.19970703 C-39.56819005 77.44840562 -39.56819005 77.44840562 -42 80 C-42.54055196 82.86975413 -42.31838552 85.05025176 -42 88 C-44.475 88.99 -44.475 88.99 -47 90 C-46.01 97.59 -45.02 105.18 -44 113 C-41.36 113.33 -38.72 113.66 -36 114 C-33.30829897 118.03755154 -33.22822436 121.34202669 -34 126 C-36.60013627 133.05090334 -40.18224066 138.86494792 -45.58203125 144.0859375 C-50.02519505 150.08359663 -48.67509322 161.7335421 -48 169 C-46.57464203 174.96730176 -44.03749989 179.38571441 -40 184 C-40 184.66 -40 185.32 -40 186 C-39.4225 186.268125 -38.845 186.53625 -38.25 186.8125 C-35.92636635 188.0388622 -33.96175354 189.24843434 -32 191 C-32 191.99 -32 192.98 -32 194 C-38.08453739 192.90478327 -42.27593266 188.39705854 -45.78125 183.5234375 C-50.36072563 176.09301381 -52.32988914 169.99823776 -52.1875 161.3125 C-52.1865332 160.17458008 -52.1865332 160.17458008 -52.18554688 159.01367188 C-52.15970931 155.76100988 -52.03491238 153.10473714 -51 150 C-51.49628906 150.43570313 -51.99257813 150.87140625 -52.50390625 151.3203125 C-56.97819019 155.24273979 -61.47564042 159.13544286 -66 163 C-62.70888695 175.57579782 -57.23452239 185.20897589 -48.375 194.75 C-46.12936936 197.19977888 -45.04485017 198.75581572 -44.4375 202.0625 C-45.2320367 206.21174723 -47.23397372 208.70487929 -50.65356445 211.21264648 C-52.55466743 212.4240423 -54.48231653 213.56561076 -56.4375 214.6875 C-57.09298828 215.07744141 -57.74847656 215.46738281 -58.42382812 215.86914062 C-61.86359582 217.88745969 -65.23435786 219.64320794 -69 221 C-68.690625 221.886875 -68.38125 222.77375 -68.0625 223.6875 C-65.63714707 231.24889443 -65.63714707 231.24889443 -67.171875 234.42578125 C-72.22067888 241.53510124 -81.61016602 245.48449531 -90 247 C-94.329598 247.48587711 -98.64820243 247.80219102 -103 248 C-103.07347656 249.66289062 -103.07347656 249.66289062 -103.1484375 251.359375 C-103.22349215 252.82294065 -103.29903881 254.28648112 -103.375 255.75 C-103.4059375 256.47960937 -103.436875 257.20921875 -103.46875 257.9609375 C-103.84381131 264.83706144 -103.84381131 264.83706144 -106 268 C-112.62040174 272.83798589 -123.88146467 271.18619553 -131.67114258 271.18530273 C-133.79724306 271.18748434 -135.92281932 271.20567764 -138.04882812 271.22460938 C-158.00575838 271.3110635 -158.00575838 271.3110635 -162.78051758 267.62573242 C-164.62378011 265.16841807 -164.19810766 262.97161492 -164 260 C-164.5983667 259.96036133 -165.1967334 259.92072266 -165.81323242 259.87988281 C-196.00344616 257.78080332 -196.00344616 257.78080332 -205 250 C-206.375 248.25 -206.375 248.25 -207 246 C-206.814375 244.7625 -206.62875 243.525 -206.4375 242.25 C-206.26541716 240.10674186 -206.26541716 240.10674186 -207 238 C-209.47190067 235.65532951 -212.10671093 233.88887313 -214.953125 232.01953125 C-217.89304095 230.07089465 -220.52974483 228.00245554 -223.1875 225.6875 C-223.92355469 225.05199219 -224.65960938 224.41648437 -225.41796875 223.76171875 C-227 222 -227 222 -227 219 C-226.1646875 218.61521484 -226.1646875 218.61521484 -225.3125 218.22265625 C-208.40130359 209.73849184 -202.75130571 191.91091045 -197.125 175.0625 C-193.95452026 165.45509677 -191.0210737 155.78145537 -188.14355469 146.08300781 C-171.78759333 90.98180083 -171.78759333 90.98180083 -148 76 C-137.27860178 70.74346993 -127.62868682 69.81864021 -116.1015625 72.8828125 C-101.3631843 78.1915986 -91.18954853 90.10555485 -84.375 103.75 C-78.94999879 115.51681498 -74.71312134 129.15158997 -73 142 C-68.35384415 139.73794864 -66.22923525 136.70670585 -63.6875 132.375 C-54.27121754 117.07130942 -54.27121754 117.07130942 -48.76953125 115.26953125 C-48.18558594 115.18058594 -47.60164062 115.09164062 -47 115 C-47.33 114.34 -47.66 113.68 -48 113 C-48.28794852 111.33665893 -48.5326933 109.66571153 -48.75390625 107.9921875 C-48.88603516 107.00605469 -49.01816406 106.01992187 -49.15429688 105.00390625 C-49.35635742 103.45509766 -49.35635742 103.45509766 -49.5625 101.875 C-49.70107422 100.83472656 -49.83964844 99.79445313 -49.98242188 98.72265625 C-50.32480981 96.1488435 -50.6638618 93.57463517 -51 91 C-52.65 90.67 -54.3 90.34 -56 90 C-56.125 84.25 -56.125 84.25 -55 82 C-55.85980469 81.76410156 -56.71960938 81.52820313 -57.60546875 81.28515625 C-61.35532324 79.86547601 -64.2097705 77.90742983 -67.3125 75.4375 C-67.87791504 74.99204834 -68.44333008 74.54659668 -69.02587891 74.08764648 C-82.55049081 63.26373412 -93.8906645 49.03461571 -96.78125 31.46875 C-97.46192745 23.78681876 -96.20174075 16.54548632 -92 10 C-86.7524727 3.88579964 -80.86045845 0.90160899 -72.96875 -0.3125 C-66.07812239 -0.75000017 -59.96483166 2.26079999 -54.625 6.4375 C-52.15104068 8.85255553 -50.69825623 11.02556877 -49 14 C-48.05640625 12.89591797 -48.05640625 12.89591797 -47.09375 11.76953125 C-35.49131282 -1.45794608 -16.73816837 -12.24298341 0 0 Z M-161.1875 89.625 C-173.49344454 106.16659551 -180.27287269 125.16108162 -185.4453125 144.92529297 C-187.07444116 151.01875043 -189.03851122 157.00775955 -191 163 C-191.34691895 164.07282227 -191.69383789 165.14564453 -192.05126953 166.25097656 C-206.05066066 209.28203542 -206.05066066 209.28203542 -218.75 217.3125 C-219.54921875 217.82425781 -220.3484375 218.33601562 -221.171875 218.86328125 C-222.07679688 219.42595703 -222.07679688 219.42595703 -223 220 C-221.44705319 224.14762191 -218.41556488 226.4377637 -215.0625 229.125 C-214.52431641 229.56714844 -213.98613281 230.00929688 -213.43164062 230.46484375 C-209.21803593 234.38477935 -209.21803593 234.38477935 -204.04296875 235.9921875 C-200.91361487 234.47238657 -199.97234214 232.12783806 -198.3125 229.125 C-197.71050781 228.05507813 -197.10851562 226.98515625 -196.48828125 225.8828125 C-194.92921595 223.04465229 -194.92921595 223.04465229 -194 220 C-193.34 219.67 -192.68 219.34 -192 219 C-192.36351562 219.6705542 -192.72703125 220.3411084 -193.1015625 221.03198242 C-194.74514939 224.07814948 -196.37268182 227.13261328 -198 230.1875 C-198.57234375 231.24259766 -199.1446875 232.29769531 -199.734375 233.38476562 C-200.54648438 234.91713867 -200.54648438 234.91713867 -201.375 236.48046875 C-201.87773437 237.41785889 -202.38046875 238.35524902 -202.8984375 239.32104492 C-204.07264644 242.17667319 -204.43739105 243.95016226 -204 247 C-193.61754939 256.89954593 -179.75532807 256.44466423 -166.35546875 256.140625 C-164.9035577 256.09656432 -163.45169018 256.05081991 -162 256 C-157.42357195 242.48731863 -154.96502811 229.10360598 -153 215 C-153.247909 229.26603602 -156.09976124 243.31295522 -160.1484375 256.9765625 C-161.03925698 260.13938028 -161.23352471 262.7306541 -161 266 C-157.47261846 269.52738154 -147.0401063 268.16078705 -142.23828125 268.16796875 C-141.44399216 268.17129715 -140.64970306 268.17462555 -139.8313446 268.17805481 C-138.16841199 268.18307501 -136.50546948 268.18546467 -134.8425293 268.18530273 C-132.30826365 268.18750368 -129.77442416 268.20575052 -127.24023438 268.22460938 C-125.6145848 268.22754154 -123.98893319 268.22952752 -122.36328125 268.23046875 C-121.61315262 268.23765427 -120.86302399 268.24483978 -120.09016418 268.25224304 C-115.69470274 268.23323016 -111.99509262 267.89691001 -108 266 C-105.96767053 263.24335181 -105.74421083 260.84818591 -105.734375 257.48046875 C-105.73179687 256.62259766 -105.72921875 255.76472656 -105.7265625 254.88085938 C-105.73816406 253.54764648 -105.73816406 253.54764648 -105.75 252.1875 C-105.74226563 251.31029297 -105.73453125 250.43308594 -105.7265625 249.52929688 C-105.74221124 244.29870459 -106.29821166 239.95004308 -108 235 C-107.34 235.33 -106.68 235.66 -106 236 C-105.3671875 238.06640625 -105.3671875 238.06640625 -104.875 240.5625 C-104.70742188 241.38878906 -104.53984375 242.21507812 -104.3671875 243.06640625 C-104.24601562 243.70449219 -104.12484375 244.34257812 -104 245 C-91.02015063 245.60215796 -80.29737194 243.11722057 -70.21484375 234.46875 C-68.73443418 232.99660704 -68.73443418 232.99660704 -69 230.5 C-69.90993765 227.31521822 -71.05864604 224.71650756 -72.5 221.75 C-75.00955723 216.47776017 -75.86147457 211.80547491 -76 206 C-75.79503906 206.69867188 -75.59007812 207.39734375 -75.37890625 208.1171875 C-74.97478516 209.48230469 -74.97478516 209.48230469 -74.5625 210.875 C-74.29566406 211.77992188 -74.02882813 212.68484375 -73.75390625 213.6171875 C-73.07386174 215.98275381 -73.07386174 215.98275381 -72 218 C-63.79294304 215.6746672 -55.21795786 212.20934979 -49.0859375 206.08984375 C-47.79337921 204.02172546 -47.79337921 204.02172546 -48.08984375 201.49609375 C-49.14430395 198.60424797 -50.38002284 197.2193512 -52.5625 195.0625 C-67.69564731 178.55115534 -72.06900404 155.79200895 -77.07226562 134.63134766 C-82.48844735 111.9026932 -90.05897218 91.89915168 -110 78 C-128.42114421 67.69327016 -147.99190822 73.95523476 -161.1875 89.625 Z M-55.140625 125.4765625 C-58.0865623 129.47462027 -60.54802133 133.73968881 -63.0078125 138.046875 C-65.44800375 141.66409968 -68.09788883 144.04894441 -72 146 C-71.68991116 147.60463449 -71.37683713 149.20869231 -71.0625 150.8125 C-70.88847656 151.70582031 -70.71445312 152.59914062 -70.53515625 153.51953125 C-70.02258847 156.11397171 -70.02258847 156.11397171 -69 159 C-65.49172085 157.47920927 -63.04728354 155.4004327 -60.25 152.8125 C-57.16631402 149.9688072 -54.05739309 147.21913762 -50.8125 144.5625 C-44.14779855 138.74775036 -37.68881149 130.19930343 -36.6875 121.1875 C-36.80625 118.79375 -36.80625 118.79375 -39 117 C-46.23802898 115.9947182 -50.79799207 120.30767641 -55.140625 125.4765625 Z " fill="#FB277A" transform="translate(386,79)"/>
<path d="M0 0 C19.16556648 14.07897064 26.93443636 37.91277078 31.16796875 60.53125 C31.26851562 61.28535156 31.3690625 62.03945312 31.47265625 62.81640625 C36.1188121 60.55435489 38.243421 57.5231121 40.78515625 53.19140625 C50.20143871 37.88771567 50.20143871 37.88771567 55.703125 36.0859375 C56.28707031 35.99699219 56.87101563 35.90804687 57.47265625 35.81640625 C57.14265625 35.15640625 56.81265625 34.49640625 56.47265625 33.81640625 C56.18470773 32.15306518 55.93996295 30.48211778 55.71875 28.80859375 C55.58662109 27.82246094 55.45449219 26.83632812 55.31835938 25.8203125 C55.18365234 24.78777344 55.04894531 23.75523437 54.91015625 22.69140625 C54.77158203 21.65113281 54.63300781 20.61085937 54.49023438 19.5390625 C54.14784644 16.96524975 53.80879445 14.39104142 53.47265625 11.81640625 C51.82265625 11.48640625 50.17265625 11.15640625 48.47265625 10.81640625 C48.10342548 5.27794471 48.10342548 5.27794471 49.97265625 2.94140625 C50.71515625 2.38453125 50.71515625 2.38453125 51.47265625 1.81640625 C50.97765625 0.88828125 50.48265625 -0.03984375 49.97265625 -0.99609375 C48.47265625 -4.18359375 48.47265625 -4.18359375 48.47265625 -7.18359375 C50.34765625 -6.62109375 50.34765625 -6.62109375 52.47265625 -5.18359375 C53.72265625 -1.55859375 53.72265625 -1.55859375 54.47265625 1.81640625 C55.13265625 1.81640625 55.79265625 1.81640625 56.47265625 1.81640625 C56.80265625 -0.16359375 57.13265625 -2.14359375 57.47265625 -4.18359375 C58.13265625 -4.18359375 58.79265625 -4.18359375 59.47265625 -4.18359375 C59.47265625 -2.53359375 59.47265625 -0.88359375 59.47265625 0.81640625 C60.13265625 0.81640625 60.79265625 0.81640625 61.47265625 0.81640625 C61.80265625 3.45640625 62.13265625 6.09640625 62.47265625 8.81640625 C59.99765625 9.80640625 59.99765625 9.80640625 57.47265625 10.81640625 C58.46265625 18.40640625 59.45265625 25.99640625 60.47265625 33.81640625 C63.11265625 34.14640625 65.75265625 34.47640625 68.47265625 34.81640625 C71.16435728 38.85395779 71.24443189 42.15843294 70.47265625 46.81640625 C67.87251998 53.86730959 64.29041559 59.68135417 58.890625 64.90234375 C54.4474612 70.90000288 55.79756303 82.54994835 56.47265625 89.81640625 C57.89801422 95.78370801 60.43515636 100.20212066 64.47265625 104.81640625 C64.47265625 105.47640625 64.47265625 106.13640625 64.47265625 106.81640625 C65.05015625 107.08453125 65.62765625 107.35265625 66.22265625 107.62890625 C68.5462899 108.85526845 70.51090271 110.06484059 72.47265625 111.81640625 C72.47265625 112.80640625 72.47265625 113.79640625 72.47265625 114.81640625 C66.38811886 113.72118952 62.19672359 109.21346479 58.69140625 104.33984375 C54.11193062 96.90942006 52.14276711 90.81464401 52.28515625 82.12890625 C52.28612305 80.99098633 52.28612305 80.99098633 52.28710938 79.83007812 C52.31294694 76.57741613 52.43774387 73.92114339 53.47265625 70.81640625 C52.97636719 71.25210938 52.48007812 71.6878125 51.96875 72.13671875 C47.49446606 76.05914604 42.99701583 79.95184911 38.47265625 83.81640625 C41.7637693 96.39220407 47.23813386 106.02538214 56.09765625 115.56640625 C58.34328689 118.01618513 59.42780608 119.57222197 60.03515625 122.87890625 C59.24061955 127.02815348 57.23868253 129.52128554 53.8190918 132.02905273 C51.91798882 133.24044855 49.99033972 134.38201701 48.03515625 135.50390625 C47.37966797 135.89384766 46.72417969 136.28378906 46.04882812 136.68554688 C42.60906043 138.70386594 39.23829839 140.45961419 35.47265625 141.81640625 C35.78203125 142.70328125 36.09140625 143.59015625 36.41015625 144.50390625 C38.83550918 152.06530068 38.83550918 152.06530068 37.30078125 155.2421875 C32.25197737 162.35150749 22.86249023 166.30090156 14.47265625 167.81640625 C10.14305825 168.30228336 5.82445382 168.61859727 1.47265625 168.81640625 C1.39917969 170.47929687 1.39917969 170.47929687 1.32421875 172.17578125 C1.2491641 173.6393469 1.17361744 175.10288737 1.09765625 176.56640625 C1.06671875 177.29601562 1.03578125 178.025625 1.00390625 178.77734375 C0.62884494 185.65346769 0.62884494 185.65346769 -1.52734375 188.81640625 C-8.14774549 193.65439214 -19.40880842 192.00260178 -27.19848633 192.00170898 C-29.32458681 192.00389059 -31.45016307 192.02208389 -33.57617188 192.04101562 C-53.53310213 192.12746975 -53.53310213 192.12746975 -58.30786133 188.44213867 C-60.15112386 185.98482432 -59.72545141 183.78802117 -59.52734375 180.81640625 C-60.12571045 180.77676758 -60.72407715 180.73712891 -61.34057617 180.69628906 C-91.53078991 178.59720957 -91.53078991 178.59720957 -100.52734375 170.81640625 C-101.90234375 169.06640625 -101.90234375 169.06640625 -102.52734375 166.81640625 C-102.34171875 165.57890625 -102.15609375 164.34140625 -101.96484375 163.06640625 C-101.79276091 160.92314811 -101.79276091 160.92314811 -102.52734375 158.81640625 C-104.99924442 156.47173576 -107.63405468 154.70527938 -110.48046875 152.8359375 C-113.4203847 150.8873009 -116.05708858 148.81886179 -118.71484375 146.50390625 C-119.45089844 145.86839844 -120.18695313 145.23289062 -120.9453125 144.578125 C-122.52734375 142.81640625 -122.52734375 142.81640625 -122.52734375 139.81640625 C-121.69203125 139.43162109 -121.69203125 139.43162109 -120.83984375 139.0390625 C-103.92864734 130.55489809 -98.27864946 112.7273167 -92.65234375 95.87890625 C-89.48186401 86.27150302 -86.54841745 76.59786162 -83.67089844 66.89941406 C-67.31493708 11.79820708 -67.31493708 11.79820708 -43.52734375 -3.18359375 C-28.38770394 -10.606317 -13.99722971 -9.43704628 0 0 Z M-56.71484375 10.44140625 C-69.02078829 26.98300176 -75.80021644 45.97748787 -80.97265625 65.74169922 C-82.60178491 71.83515668 -84.56585497 77.8241658 -86.52734375 83.81640625 C-86.8742627 84.88922852 -87.22118164 85.96205078 -87.57861328 87.06738281 C-101.57800441 130.09844167 -101.57800441 130.09844167 -114.27734375 138.12890625 C-115.0765625 138.64066406 -115.87578125 139.15242187 -116.69921875 139.6796875 C-117.60414063 140.24236328 -117.60414063 140.24236328 -118.52734375 140.81640625 C-116.97439694 144.96402816 -113.94290863 147.25416995 -110.58984375 149.94140625 C-110.05166016 150.38355469 -109.51347656 150.82570313 -108.95898438 151.28125 C-104.74537968 155.2011856 -104.74537968 155.2011856 -99.5703125 156.80859375 C-96.44095862 155.28879282 -95.49968589 152.94424431 -93.83984375 149.94140625 C-93.23785156 148.87148438 -92.63585937 147.8015625 -92.015625 146.69921875 C-90.4565597 143.86105854 -90.4565597 143.86105854 -89.52734375 140.81640625 C-88.86734375 140.48640625 -88.20734375 140.15640625 -87.52734375 139.81640625 C-87.89085937 140.48696045 -88.254375 141.15751465 -88.62890625 141.84838867 C-90.27249314 144.89455573 -91.90002557 147.94901953 -93.52734375 151.00390625 C-94.0996875 152.05900391 -94.67203125 153.11410156 -95.26171875 154.20117188 C-96.07382813 155.73354492 -96.07382813 155.73354492 -96.90234375 157.296875 C-97.40507812 158.23426514 -97.9078125 159.17165527 -98.42578125 160.13745117 C-99.59999019 162.99307944 -99.9647348 164.76656851 -99.52734375 167.81640625 C-89.14489314 177.71595218 -75.28267182 177.26107048 -61.8828125 176.95703125 C-60.43090145 176.91297057 -58.97903393 176.86722616 -57.52734375 176.81640625 C-52.9509157 163.30372488 -50.49237186 149.92001223 -48.52734375 135.81640625 C-48.77525275 150.08244227 -51.62710499 164.12936147 -55.67578125 177.79296875 C-56.56660073 180.95578653 -56.76086846 183.54706035 -56.52734375 186.81640625 C-52.99996221 190.34378779 -42.56745005 188.9771933 -37.765625 188.984375 C-36.97133591 188.9877034 -36.17704681 188.9910318 -35.35868835 188.99446106 C-33.69575574 188.99948126 -32.03281323 189.00187092 -30.36987305 189.00170898 C-27.8356074 189.00390993 -25.30176791 189.02215677 -22.76757812 189.04101562 C-21.14192855 189.04394779 -19.51627694 189.04593377 -17.890625 189.046875 C-17.14049637 189.05406052 -16.39036774 189.06124603 -15.61750793 189.06864929 C-11.22204649 189.04963641 -7.52243637 188.71331626 -3.52734375 186.81640625 C-1.49501428 184.05975806 -1.27155458 181.66459216 -1.26171875 178.296875 C-1.25914062 177.43900391 -1.2565625 176.58113281 -1.25390625 175.69726562 C-1.26550781 174.36405273 -1.26550781 174.36405273 -1.27734375 173.00390625 C-1.26960938 172.12669922 -1.261875 171.24949219 -1.25390625 170.34570312 C-1.26955499 165.11511084 -1.82555541 160.76644933 -3.52734375 155.81640625 C-2.86734375 156.14640625 -2.20734375 156.47640625 -1.52734375 156.81640625 C-0.89453125 158.8828125 -0.89453125 158.8828125 -0.40234375 161.37890625 C-0.23476563 162.20519531 -0.0671875 163.03148437 0.10546875 163.8828125 C0.22664063 164.52089844 0.3478125 165.15898437 0.47265625 165.81640625 C13.45250562 166.41856421 24.17528431 163.93362682 34.2578125 155.28515625 C35.73822207 153.81301329 35.73822207 153.81301329 35.47265625 151.31640625 C34.5627186 148.13162447 33.41401021 145.53291381 31.97265625 142.56640625 C29.46309902 137.29416642 28.61118168 132.62188116 28.47265625 126.81640625 C28.67761719 127.51507813 28.88257813 128.21375 29.09375 128.93359375 C29.49787109 130.29871094 29.49787109 130.29871094 29.91015625 131.69140625 C30.17699219 132.59632813 30.44382812 133.50125 30.71875 134.43359375 C31.39879451 136.79916006 31.39879451 136.79916006 32.47265625 138.81640625 C40.67971321 136.49107345 49.25469839 133.02575604 55.38671875 126.90625 C56.67927704 124.83813171 56.67927704 124.83813171 56.3828125 122.3125 C55.3283523 119.42065422 54.09263341 118.03575745 51.91015625 115.87890625 C36.77700894 99.36756159 32.40365221 76.6084152 27.40039062 55.44775391 C21.9842089 32.71909945 14.41368407 12.71555793 -5.52734375 -1.18359375 C-23.94848796 -11.49032359 -43.51925197 -5.22835899 -56.71484375 10.44140625 Z M49.33203125 46.29296875 C46.38609395 50.29102652 43.92463492 54.55609506 41.46484375 58.86328125 C39.0246525 62.48050593 36.37476742 64.86535066 32.47265625 66.81640625 C32.78274509 68.42104074 33.09581912 70.02509856 33.41015625 71.62890625 C33.58417969 72.52222656 33.75820313 73.41554687 33.9375 74.3359375 C34.45006778 76.93037796 34.45006778 76.93037796 35.47265625 79.81640625 C38.9809354 78.29561552 41.42537271 76.21683895 44.22265625 73.62890625 C47.30634223 70.78521345 50.41526316 68.03554387 53.66015625 65.37890625 C60.3248577 59.56415661 66.78384476 51.01570968 67.78515625 42.00390625 C67.66640625 39.61015625 67.66640625 39.61015625 65.47265625 37.81640625 C58.23462727 36.81112445 53.67466418 41.12408266 49.33203125 46.29296875 Z " fill="#D64277" transform="translate(281.52734375,158.18359375)"/>
<path d="M0 0 C1.875 0.5625 1.875 0.5625 4 2 C5.25 5.625 5.25 5.625 6 9 C6.66 9 7.32 9 8 9 C8.33 7.02 8.66 5.04 9 3 C9.66 3 10.32 3 11 3 C11 4.65 11 6.3 11 8 C11.66 8 12.32 8 13 8 C13.495 11.96 13.495 11.96 14 16 C12.35 16.66 10.7 17.32 9 18 C9.99 25.59 10.98 33.18 12 41 C14.64 41.33 17.28 41.66 20 42 C22.69170103 46.03755154 22.77177564 49.34202669 22 54 C19.39986373 61.05090334 15.81775934 66.86494792 10.41796875 72.0859375 C5.97480495 78.08359663 7.32490678 89.7335421 8 97 C9.42535797 102.96730176 11.96250011 107.38571441 16 112 C16 112.66 16 113.32 16 114 C16.5775 114.268125 17.155 114.53625 17.75 114.8125 C20.07363365 116.0388622 22.03824646 117.24843434 24 119 C24 119.99 24 120.98 24 122 C17.91546261 120.90478327 13.72406734 116.39705854 10.21875 111.5234375 C5.63927437 104.09301381 3.67011086 97.99823776 3.8125 89.3125 C3.81314453 88.55388672 3.81378906 87.79527344 3.81445312 87.01367188 C3.84029069 83.76100988 3.96508762 81.10473714 5 78 C4.50371094 78.43570313 4.00742187 78.87140625 3.49609375 79.3203125 C-0.97819019 83.24273979 -5.47564042 87.13544286 -10 91 C-9.67 92.2375 -9.34 93.475 -9 94.75 C-8.20108841 97.74591845 -8 99.80107719 -8 103 C-8.66 103 -9.32 103 -10 103 C-13.85995949 93.81548645 -16.70863851 84.65116495 -18.9375 74.9375 C-24.73192631 47.0176623 -24.73192631 47.0176623 -38.20703125 22.3203125 C-40 20 -40 20 -40 17 C-33.53505405 19.26991435 -30.83384428 27.18731096 -28 33 C-23.14586257 43.70853788 -17 58.19181571 -17 70 C-12.35384415 67.73794864 -10.22923525 64.70670585 -7.6875 60.375 C1.72878246 45.07130942 1.72878246 45.07130942 7.23046875 43.26953125 C7.81441406 43.18058594 8.39835937 43.09164062 9 43 C8.67 42.34 8.34 41.68 8 41 C7.71205148 39.33665893 7.4673067 37.66571153 7.24609375 35.9921875 C7.11396484 35.00605469 6.98183594 34.01992187 6.84570312 33.00390625 C6.71099609 31.97136719 6.57628906 30.93882812 6.4375 29.875 C6.29892578 28.83472656 6.16035156 27.79445312 6.01757812 26.72265625 C5.67519019 24.1488435 5.3361382 21.57463517 5 19 C3.35 18.67 1.7 18.34 0 18 C-0.36923077 12.46153846 -0.36923077 12.46153846 1.5 10.125 C1.995 9.75375 2.49 9.3825 3 9 C2.505 8.071875 2.01 7.14375 1.5 6.1875 C0 3 0 3 0 0 Z M0.859375 53.4765625 C-2.0865623 57.47462027 -4.54802133 61.73968881 -7.0078125 66.046875 C-9.44800375 69.66409968 -12.09788883 72.04894441 -16 74 C-15.68991116 75.60463449 -15.37683713 77.20869231 -15.0625 78.8125 C-14.88847656 79.70582031 -14.71445312 80.59914062 -14.53515625 81.51953125 C-14.02258847 84.11397171 -14.02258847 84.11397171 -13 87 C-9.49172085 85.47920927 -7.04728354 83.4004327 -4.25 80.8125 C-1.16631402 77.9688072 1.94260691 75.21913762 5.1875 72.5625 C11.85220145 66.74775036 18.31118851 58.19930343 19.3125 49.1875 C19.19375 46.79375 19.19375 46.79375 17 45 C9.76197102 43.9947182 5.20200793 48.30767641 0.859375 53.4765625 Z " fill="#DD3775" transform="translate(330,151)"/>
<path d="M0 0 C1.875 0.5625 1.875 0.5625 4 2 C5.25 5.625 5.25 5.625 6 9 C6.66 9 7.32 9 8 9 C8.33 7.02 8.66 5.04 9 3 C9.66 3 10.32 3 11 3 C11 4.65 11 6.3 11 8 C11.66 8 12.32 8 13 8 C13.33 10.64 13.66 13.28 14 16 C12.35 16.66 10.7 17.32 9 18 C9.99 25.59 10.98 33.18 12 41 C14.64 41.33 17.28 41.66 20 42 C22.69170103 46.03755154 22.77177564 49.34202669 22 54 C19.12378272 61.79956431 14.8354503 68.1300204 9 74 C7.68 73.34 6.36 72.68 5 72 C5.90492188 70.96552734 5.90492188 70.96552734 6.828125 69.91015625 C14.82279687 60.54941972 14.82279687 60.54941972 18.3125 49 C18.20217516 47.00568547 18.20217516 47.00568547 17 46 C10.77245952 46.21110307 7.38357901 47.38715574 3 52 C0.86498962 54.83286837 -1.01334839 57.79490439 -2.875 60.8125 C-3.37257813 61.60076172 -3.87015625 62.38902344 -4.3828125 63.20117188 C-5.59769674 65.12863244 -6.80302503 67.06138624 -8 69 C-8.33 68.34 -8.66 67.68 -9 67 C-9.66 66.67 -10.32 66.34 -11 66 C1.02613261 45.30609627 1.02613261 45.30609627 7.234375 43.265625 C7.81703125 43.17796875 8.3996875 43.0903125 9 43 C8.67 42.34 8.34 41.68 8 41 C7.71205148 39.33665893 7.4673067 37.66571153 7.24609375 35.9921875 C7.11396484 35.00605469 6.98183594 34.01992187 6.84570312 33.00390625 C6.71099609 31.97136719 6.57628906 30.93882812 6.4375 29.875 C6.29892578 28.83472656 6.16035156 27.79445312 6.01757812 26.72265625 C5.67519019 24.1488435 5.3361382 21.57463517 5 19 C3.35 18.67 1.7 18.34 0 18 C-0.36923077 12.46153846 -0.36923077 12.46153846 1.5 10.125 C1.995 9.75375 2.49 9.3825 3 9 C2.505 8.071875 2.01 7.14375 1.5 6.1875 C0 3 0 3 0 0 Z " fill="#D7326F" transform="translate(330,151)"/>
<path d="M0 0 C1.875 0.5625 1.875 0.5625 4 2 C5.25 5.625 5.25 5.625 6 9 C6.66 9 7.32 9 8 9 C8.33 7.02 8.66 5.04 9 3 C9.66 3 10.32 3 11 3 C11 4.65 11 6.3 11 8 C11.66 8 12.32 8 13 8 C13.33 10.64 13.66 13.28 14 16 C12.35 16.66 10.7 17.32 9 18 C9.99 25.92 10.98 33.84 12 42 C10.515 42.495 10.515 42.495 9 43 C7.8093741 40.6187482 7.59530649 38.63405776 7.24609375 35.9921875 C7.04790039 34.51298828 7.04790039 34.51298828 6.84570312 33.00390625 C6.71099609 31.97136719 6.57628906 30.93882812 6.4375 29.875 C6.22963867 28.31458984 6.22963867 28.31458984 6.01757812 26.72265625 C5.67519019 24.1488435 5.3361382 21.57463517 5 19 C3.35 18.67 1.7 18.34 0 18 C-0.36923077 12.46153846 -0.36923077 12.46153846 1.5 10.125 C1.995 9.75375 2.49 9.3825 3 9 C2.505 8.071875 2.01 7.14375 1.5 6.1875 C0 3 0 3 0 0 Z " fill="#C11752" transform="translate(330,151)"/>
<path d="M0 0 C1.875 0.25 1.875 0.25 4 1 C6.55863356 4.60534728 6.26679323 8.267631 6.25 12.5625 C6.25773438 13.23474609 6.26546875 13.90699219 6.2734375 14.59960938 C6.25880148 18.28422836 6.09589902 19.85615148 4 23 C1.5625 23.5 1.5625 23.5 -1 23 C-4.98799163 17.72402065 -4.81507529 12.3575873 -4 6 C-2.92627988 3.48535677 -1.83722716 2.06688055 0 0 Z " fill="#FB277C" transform="translate(237,209)"/>
<path d="M0 0 C2.375 0.1875 2.375 0.1875 5 1 C7.71230704 5.13303931 7.55276695 10.2237481 7 15 C5.8125 18.0625 5.8125 18.0625 4 20 C1.4375 20.4375 1.4375 20.4375 -1 20 C-3.75874035 17.24125965 -3.29943408 15.53323529 -3.3125 11.6875 C-3.32925781 10.55699219 -3.34601563 9.42648438 -3.36328125 8.26171875 C-2.97122864 4.74167653 -2.03261266 2.85852914 0 0 Z " fill="#FB277B" transform="translate(269,209)"/>
<path d="M0 0 C-0.02094727 0.64437012 -0.04189453 1.28874023 -0.06347656 1.95263672 C-0.14760998 4.92659332 -0.19896345 7.90029842 -0.25 10.875 C-0.28351563 11.88820312 -0.31703125 12.90140625 -0.3515625 13.9453125 C-0.47321388 23.43412033 1.68561966 30.78356533 8 38 C8 38.66 8 39.32 8 40 C8.5775 40.268125 9.155 40.53625 9.75 40.8125 C12.07363365 42.0388622 14.03824646 43.24843434 16 45 C16 45.99 16 46.98 16 48 C9.91546261 46.90478327 5.72406734 42.39705854 2.21875 37.5234375 C-2.93225827 29.16567408 -4.34419531 22.48679881 -4.3125 12.75 C-4.32861328 11.74453125 -4.34472656 10.7390625 -4.36132812 9.703125 C-4.36197266 8.7440625 -4.36261719 7.785 -4.36328125 6.796875 C-4.36626221 5.92385742 -4.36924316 5.05083984 -4.37231445 4.15136719 C-4.24945068 3.44141602 -4.12658691 2.73146484 -4 2 C-1 0 -1 0 0 0 Z " fill="#9C1F43" transform="translate(338,225)"/>
<path d="M0 0 C0.33 0 0.66 0 1 0 C2.02399535 18.00525158 -1.89485581 35.81087091 -7 53 C-7.33 52.01 -7.66 51.02 -8 50 C-13.61 50 -19.22 50 -25 50 C-25 49.67 -25 49.34 -25 49 C-17.08 48.505 -17.08 48.505 -9 48 C-4.55216721 32.17738172 -2.08125517 16.28992599 0 0 Z " fill="#D35584" transform="translate(233,286)"/>
<path d="M0 0 C6.45113318 2.26506454 9.18829301 10.18584552 12 16 C13.23075854 18.78255654 14.3598067 21.59241645 15.4375 24.4375 C15.8075415 25.41130615 15.8075415 25.41130615 16.18505859 26.40478516 C17.68723308 30.573453 18.69834112 34.57384159 19 39 C18.34 39.66 17.68 40.32 17 41 C16.81937012 40.39115967 16.63874023 39.78231934 16.45263672 39.1550293 C12.46556411 25.8425389 8.87164488 13.91894755 0 3 C0 2.01 0 1.02 0 0 Z " fill="#D94178" transform="translate(290,168)"/>
<path d="M0 0 C1.875 0.25 1.875 0.25 4 1 C6.55863356 4.60534728 6.26679323 8.267631 6.25 12.5625 C6.25773438 13.23474609 6.26546875 13.90699219 6.2734375 14.59960938 C6.25880148 18.28422836 6.09589902 19.85615148 4 23 C1.375 23.1875 1.375 23.1875 -1 23 C-1.33 22.34 -1.66 21.68 -2 21 C-0.02 20.67 1.96 20.34 4 20 C4 15.05 4 10.1 4 5 C3.01 5 2.02 5 1 5 C0.67 5.66 0.34 6.32 0 7 C-0.66 6.67 -1.32 6.34 -2 6 C-2 10.62 -2 15.24 -2 20 C-4.65499376 17.34500624 -4.32897553 15.95036703 -4.375 12.25 C-4.30967554 6.81500503 -3.58930185 4.03796458 0 0 Z " fill="#E54180" transform="translate(237,209)"/>
<path d="M0 0 C1.76171875 1.63671875 1.76171875 1.63671875 3 3 C0.525 2.505 0.525 2.505 -2 2 C-2 1.34 -2 0.68 -2 0 C-7.94 -0.66 -13.88 -1.32 -20 -2 C-20.33 -1.01 -20.66 -0.02 -21 1 C-22.093125 1.28875 -23.18625 1.5775 -24.3125 1.875 C-28.54821444 3.16725186 -29.48552515 4.49769575 -32 8 C-32.99 8.33 -33.98 8.66 -35 9 C-32.67324071 3.79570266 -28.95018279 0.42222074 -23.8203125 -2.05078125 C-15.04047777 -5.25587663 -8.11470733 -4.78559663 0 0 Z " fill="#DB3876" transform="translate(328,83)"/>
<path d="M0 0 C1.32 0.33 2.64 0.66 4 1 C4.99 8.92 5.98 16.84 7 25 C6.01 25.33 5.02 25.66 4 26 C2.74779455 23.49558911 2.58306609 21.33837202 2.24609375 18.5546875 C2.11396484 17.47832031 1.98183594 16.40195313 1.84570312 15.29296875 C1.71099609 14.16503906 1.57628906 13.03710938 1.4375 11.875 C1.29892578 10.73933594 1.16035156 9.60367188 1.01757812 8.43359375 C0.67508396 5.62277956 0.33603805 2.81159213 0 0 Z " fill="#A01D43" transform="translate(335,168)"/>
<path d="M0 0 C0.99 0.66 1.98 1.32 3 2 C9.19207813 4.22026706 15.41030758 4.63069989 21.9375 5.125 C23.00291016 5.21136719 24.06832031 5.29773438 25.16601562 5.38671875 C27.77690827 5.59746345 30.38813684 5.80171135 33 6 C33.66 4.68 34.32 3.36 35 2 C34.67 3.65 34.34 5.3 34 7 C9.29767618 7.86476426 9.29767618 7.86476426 -1 3 C-1.66 2.34 -2.32 1.68 -3 1 C-2.01 0.67 -1.02 0.34 0 0 Z " fill="#FEE2F7" transform="translate(190,328)"/>
<path d="M0 0 C2.375 0.1875 2.375 0.1875 5 1 C7.76735086 5.2169156 7.19038806 10.14510439 7 15 C6.67 15 6.34 15 6 15 C5.34 10.71 4.68 6.42 4 2 C2.68 2 1.36 2 0 2 C0.020625 2.804375 0.04125 3.60875 0.0625 4.4375 C0 7 0 7 -1 8 C-1.07179964 9.51928038 -1.08392007 11.04167482 -1.0625 12.5625 C-1.05347656 13.38878906 -1.04445313 14.21507812 -1.03515625 15.06640625 C-1.02355469 15.70449219 -1.01195312 16.34257812 -1 17 C0.84725052 17.69159401 0.84725052 17.69159401 3 18 C3.99 17.34 4.98 16.68 6 16 C5.34 17.32 4.68 18.64 4 20 C1.625 20.125 1.625 20.125 -1 20 C-3.75874035 17.24125965 -3.29943408 15.53323529 -3.3125 11.6875 C-3.32925781 10.55699219 -3.34601563 9.42648438 -3.36328125 8.26171875 C-2.97122864 4.74167653 -2.03261266 2.85852914 0 0 Z " fill="#DE4680" transform="translate(269,209)"/>
<path d="M0 0 C0.38218767 1.65614657 0.71395102 3.32457024 1 5 C0 6 0 6 -2.72265625 6.09765625 C-4.37587891 6.08025391 -4.37587891 6.08025391 -6.0625 6.0625 C-7.16722656 6.05347656 -8.27195312 6.04445312 -9.41015625 6.03515625 C-10.69212891 6.01775391 -10.69212891 6.01775391 -12 6 C-12 4.68 -12 3.36 -12 2 C-10.56342755 1.66269158 -9.12569907 1.33030409 -7.6875 1 C-6.88699219 0.814375 -6.08648437 0.62875 -5.26171875 0.4375 C-3 0 -3 0 0 0 Z " fill="#F72A76" transform="translate(343,162)"/>
<path d="M0 0 C3.03716734 4.55575101 2.640588 8.6574961 2 14 C0.22946912 20.44200852 -1.65490411 26.81391781 -6 32 C-6.33 30.35 -6.66 28.7 -7 27 C-6.01 27 -5.02 27 -4 27 C-4 24.69 -4 22.38 -4 20 C-3.01 20 -2.02 20 -1 20 C-0.67 13.4 -0.34 6.8 0 0 Z " fill="#DB3576" transform="translate(391,86)"/>
<path d="M0 0 C0.99 0 1.98 0 3 0 C3.36190476 5.42857143 3.36190476 5.42857143 1.8125 7.875 C-0.63936422 9.39684676 -2.16818902 9.43566323 -5 9 C-7.1519437 5.77208445 -7.20086443 4.71599191 -7 1 C-6.01 1.33 -5.02 1.66 -4 2 C-4 2.99 -4 3.98 -4 5 C-3.01 4.67 -2.02 4.34 -1 4 C-0.26676204 1.98491642 -0.26676204 1.98491642 0 0 Z " fill="#E1407D" transform="translate(256,225)"/>
<path d="M0 0 C-0.06058594 0.64324219 -0.12117188 1.28648437 -0.18359375 1.94921875 C-0.86465112 9.29416058 -1.45035636 16.64413091 -2 24 C-2.66 24 -3.32 24 -4 24 C-4.08681476 20.37515001 -4.14032721 16.75056557 -4.1875 13.125 C-4.21263672 12.09246094 -4.23777344 11.05992187 -4.26367188 9.99609375 C-4.27333984 9.00996094 -4.28300781 8.02382812 -4.29296875 7.0078125 C-4.31653442 5.64100342 -4.31653442 5.64100342 -4.34057617 4.24658203 C-4.22818604 3.50520996 -4.1157959 2.76383789 -4 2 C-1 0 -1 0 0 0 Z " fill="#A71B46" transform="translate(338,225)"/>
<path d="M0 0 C2.40613666 3.60920499 2.06740887 4.3908635 1.25 8.5 C1.06953125 9.4590625 0.8890625 10.418125 0.703125 11.40625 C0 14 0 14 -2 17 C-2 16.01 -2 15.02 -2 14 C-7.61 14 -13.22 14 -19 14 C-19 13.67 -19 13.34 -19 13 C-11.08 12.505 -11.08 12.505 -3 12 C-2.01 8.04 -1.02 4.08 0 0 Z " fill="#E36091" transform="translate(227,322)"/>
<path d="M0 0 C4.48211297 1.49403766 6.85817408 4.97401143 9 9 C9.6432469 11.40518406 9.84672564 13.49651886 10 16 C9.01 16 8.02 16 7 16 C6.74605469 15.32453125 6.49210937 14.6490625 6.23046875 13.953125 C5.88628906 13.06109375 5.54210937 12.1690625 5.1875 11.25 C4.85105469 10.36828125 4.51460938 9.4865625 4.16796875 8.578125 C3.03112171 6.06869674 1.6558864 4.18254368 0 2 C0 1.34 0 0.68 0 0 Z " fill="#DD4A82" transform="translate(282,172)"/>
<path d="M0 0 C3.63 0.66 7.26 1.32 11 2 C12 6 12 6 11 9 C8.03469503 7.64199529 5.70868729 6.07571737 3.25 3.9375 C2.63640625 3.41027344 2.0228125 2.88304687 1.390625 2.33984375 C0.93171875 1.89769531 0.4728125 1.45554688 0 1 C0 0.67 0 0.34 0 0 Z " fill="#E62D73" transform="translate(310,146)"/>
<path d="M0 0 C0.66 0 1.32 0 2 0 C0.27502493 4.6029598 -1.9095871 8.93255824 -4.125 13.3125 C-4.49753906 14.05306641 -4.87007812 14.79363281 -5.25390625 15.55664062 C-6.16744806 17.37201217 -7.08347487 19.18613282 -8 21 C-8.33 20.01 -8.66 19.02 -9 18 C-9.66 17.67 -10.32 17.34 -11 17 C-10.56816406 16.60683594 -10.13632813 16.21367187 -9.69140625 15.80859375 C-7.73115354 13.71252676 -6.39151082 11.535434 -4.9375 9.0625 C-4.17759766 7.78052734 -4.17759766 7.78052734 -3.40234375 6.47265625 C-2.19455966 4.34305365 -1.06791424 2.20225378 0 0 Z " fill="#DB5386" transform="translate(192,298)"/>
<path d="M0 0 C0.33 0 0.66 0 1 0 C1.12117188 0.95261719 1.24234375 1.90523438 1.3671875 2.88671875 C1.53476562 4.14097656 1.70234375 5.39523437 1.875 6.6875 C2.03742188 7.92886719 2.19984375 9.17023438 2.3671875 10.44921875 C2.92684648 13.5895275 3.80417402 16.07228812 5 19 C4.625 21.8125 4.625 21.8125 4 24 C0.41908736 20.41908736 0.0467967 15.94997306 -0.1953125 11.03515625 C-0.17210937 9.72417969 -0.14890625 8.41320312 -0.125 7.0625 C-0.11597656 6.37865234 -0.10695313 5.69480469 -0.09765625 4.99023438 C-0.07438958 3.32666713 -0.03853167 1.66328369 0 0 Z " fill="#D75788" transform="translate(309,276)"/>
<path d="M0 0 C0.66 0 1.32 0 2 0 C1.67012361 2.47407292 1.42027913 3.6637767 -0.5625 5.25 C-6.24330315 6.99793943 -12.24803033 5.95866161 -18 5 C-18 4.67 -18 4.34 -18 4 C-16.86820312 3.87882812 -15.73640625 3.75765625 -14.5703125 3.6328125 C-13.08848969 3.46399724 -11.60672158 3.29470145 -10.125 3.125 C-9.00544922 3.00705078 -9.00544922 3.00705078 -7.86328125 2.88671875 C-3.47444593 2.4919231 -3.47444593 2.4919231 0 0 Z " fill="#D23F74" transform="translate(279,343)"/>
<path d="M0 0 C1.875 0.5625 1.875 0.5625 4 2 C5.25 5.625 5.25 5.625 6 9 C6.66 9 7.32 9 8 9 C7.67 9.66 7.34 10.32 7 11 C6.01 11 5.02 11 4 11 C3.32591692 9.73308493 2.66099503 8.46129251 2 7.1875 C1.62875 6.47980469 1.2575 5.77210938 0.875 5.04296875 C0 3 0 3 0 0 Z " fill="#CC1152" transform="translate(330,151)"/>
<path d="M0 0 C1.485 0.99 1.485 0.99 3 2 C3 3.32 3 4.64 3 6 C3.66 6 4.32 6 5 6 C5 7.32 5 8.64 5 10 C6.32 10.33 7.64 10.66 9 11 C8.01 11.495 8.01 11.495 7 12 C7.33 13.32 7.66 14.64 8 16 C5.34154327 13.62999752 3.88838209 11.18015846 2.3125 8 C1.87550781 7.13375 1.43851562 6.2675 0.98828125 5.375 C0 3 0 3 0 0 Z " fill="#DE3576" transform="translate(292,118)"/>
<path d="M0 0 C0.66 0 1.32 0 2 0 C1.22095672 10.55808656 1.22095672 10.55808656 -1 15 C-1.33 15 -1.66 15 -2 15 C-1.85816304 13.24967156 -1.71136571 11.49974466 -1.5625 9.75 C-1.48128906 8.77546875 -1.40007812 7.8009375 -1.31640625 6.796875 C-1.04925416 4.43538247 -0.64628032 2.28098935 0 0 Z " fill="#D7437A" transform="translate(230,310)"/>
<path d="M0 0 C0.33 0.99 0.66 1.98 1 3 C-0.3125 5.1875 -0.3125 5.1875 -2 7 C-2.66 7 -3.32 7 -4 7 C-4.103125 7.598125 -4.20625 8.19625 -4.3125 8.8125 C-5.08876455 11.28243264 -6.07088921 12.32251235 -8 14 C-8.66 13.67 -9.32 13.34 -10 13 C-9.52949219 12.39671875 -9.05898437 11.7934375 -8.57421875 11.171875 C-7.64029297 9.97304687 -7.64029297 9.97304687 -6.6875 8.75 C-6.07261719 7.96109375 -5.45773438 7.1721875 -4.82421875 6.359375 C-3.19620982 4.2537703 -1.59064137 2.13390657 0 0 Z " fill="#FEDFF2" transform="translate(229,164)"/>
<path d="M0 0 C0.99 0.66 1.98 1.32 3 2 C4.175625 2.33 5.35125 2.66 6.5625 3 C10 4 10 4 12 6 C6.33895411 5.50341703 2.12325529 4.45489316 -3 2 C-2.01 1.34 -1.02 0.68 0 0 Z " fill="#FED9EE" transform="translate(190,328)"/>
<path d="M0 0 C1.03857269 4.15429075 1.11428684 4.60180343 -0.6875 8.125 C-1.02136719 8.80820312 -1.35523438 9.49140625 -1.69921875 10.1953125 C-3 12 -3 12 -7 14 C-4.69 9.38 -2.38 4.76 0 0 Z " fill="#FEDCF1" transform="translate(184,273)"/>
<path d="M0 0 C0.99 0.33 1.98 0.66 3 1 C3.33 4.3 3.66 7.6 4 11 C2 10 2 10 0.875 7.75 C-0.00513321 4.98386705 -0.1645438 2.87951649 0 0 Z " fill="#DB6090" transform="translate(278,314)"/>
<path d="M0 0 C0.99 0.33 1.98 0.66 3 1 C3 1.99 3 2.98 3 4 C3.99 4.33 4.98 4.66 6 5 C5.34 5 4.68 5 4 5 C4 5.99 4 6.98 4 8 C3.01 7.67 2.02 7.34 1 7 C0.67 4.69 0.34 2.38 0 0 Z " fill="#E25089" transform="translate(249,226)"/>
<path d="M0 0 C0.99 0.33 1.98 0.66 3 1 C3.33 3.31 3.66 5.62 4 8 C3.01 8.33 2.02 8.66 1 9 C0 2.25 0 2.25 0 0 Z " fill="#D1396E" transform="translate(222,338)"/>
<path d="M0 0 C2.475 0.99 2.475 0.99 5 2 C5 3.65 5 5.3 5 7 C4.01 7.33 3.02 7.66 2 8 C1.814375 6.824375 1.814375 6.824375 1.625 5.625 C1.20882007 2.85942178 1.20882007 2.85942178 -1 1 C-0.67 0.67 -0.34 0.34 0 0 Z " fill="#D8306D" transform="translate(178,314)"/>
<path d="M0 0 C0.66 0 1.32 0 2 0 C0.55049545 3.7910119 -1.15172566 7.3874638 -3 11 C-3.66 11 -4.32 11 -5 11 C-3.78065514 6.96678237 -2.44045073 3.45730521 0 0 Z " fill="#CD5983" transform="translate(192,298)"/>
<path d="M0 0 C2.97 0.33 5.94 0.66 9 1 C9.33 1.99 9.66 2.98 10 4 C3.375 3.375 3.375 3.375 0 0 Z " fill="#DC3571" transform="translate(324,157)"/>
<path d="M0 0 C0.99 0 1.98 0 3 0 C3.33 2.31 3.66 4.62 4 7 C3.34 7 2.68 7 2 7 C0.5393715 4.35261084 0 3.10551666 0 0 Z " fill="#E53B79" transform="translate(336,275)"/>
<path d="M0 0 C0.99 0 1.98 0 3 0 C3.38218767 1.65614657 3.71395102 3.32457024 4 5 C3 6 3 6 0.4375 6.0625 C-0.7690625 6.0315625 -0.7690625 6.0315625 -2 6 C-1.01 5.67 -0.02 5.34 1 5 C0.67 3.35 0.34 1.7 0 0 Z " fill="#D42E6E" transform="translate(340,162)"/>
<path d="M0 0 C1.65 0 3.3 0 5 0 C5.33 0.66 5.66 1.32 6 2 C3.35261084 3.4606285 2.10551666 4 -1 4 C-0.67 2.68 -0.34 1.36 0 0 Z " fill="#DD3374" transform="translate(314,297)"/>
<path d="M0 0 C0.33 0.66 0.66 1.32 1 2 C3.01669827 3.13350534 3.01669827 3.13350534 5 4 C4.67 4.99 4.34 5.98 4 7 C2.68 6.34 1.36 5.68 0 5 C0 3.35 0 1.7 0 0 Z " fill="#991B3D" transform="translate(345,263)"/>
<path d="M0 0 C0.66 0.66 1.32 1.32 2 2 C1.8125 4.5 1.8125 4.5 1 7 C0.01 7.66 -0.98 8.32 -2 9 C-2 8.01 -2 7.02 -2 6 C-1.34 6 -0.68 6 0 6 C0 4.02 0 2.04 0 0 Z " fill="#FFD2ED" transform="translate(315,306)"/>
<path d="M0 0 C1.32 0 2.64 0 4 0 C4 1.32 4 2.64 4 4 C3.01 4.33 2.02 4.66 1 5 C0.67 3.35 0.34 1.7 0 0 Z " fill="#DBA6BB" transform="translate(291,191)"/>
</svg>
